<?xml version="1.0" encoding="utf-8"?>
<!-- Generator: Adobe Illustrator 15.0.0, SVG Export Plug-In . SVG Version: 6.00 Build 0)  -->
<!DOCTYPE svg PUBLIC "-//W3C//DTD SVG 1.1//EN" "http://www.w3.org/Graphics/SVG/1.1/DTD/svg11.dtd">
<svg version="1.1" id="Layer_1" xmlns="http://www.w3.org/2000/svg" xmlns:xlink="http://www.w3.org/1999/xlink" x="0px" y="0px"
	 width="595.276px" height="595.28px" viewBox="0 0 595.276 595.28" enable-background="new 0 0 595.276 595.28"
	 xml:space="preserve">
<g>
	<g>
		<g>
			<path d="M447.857,557.82c-25.892-8.227-44.967-24.067-58.27-48.364L271.894,299.429l41.527-22.737l118.678,211.812
				c6.755,12.349,16.064,19.352,29.39,23.9l5.379,1.366c14.516,2.622,26.229-0.629,38.782-8.962l0.341-0.224
				c12.177-8.866,19.677-20.71,22.292-35.226c0.568-3.163,1.685-5.994,3.428-8.68c1.781-2.681,3.896-4.857,6.435-6.639
				c2.573-1.784,5.358-2.997,8.506-3.708c3.095-0.71,6.141-0.773,9.309-0.199c3.333,0.599,6.197,1.716,8.725,3.429
				c2.637,1.74,4.785,3.857,6.603,6.459c1.785,2.56,2.987,5.33,3.703,8.472c0.697,3.096,0.763,6.156,0.197,9.309
				c-5.055,28.002-18.845,49.479-42.162,65.68c-23.331,16.207-48.367,21.611-76.567,16.527L447.857,557.82z"/>
		</g>
		<g>
			<path fill="#FFFFFF" d="M416.638,497.164c8.532,15.601,20.99,25.818,39.124,32.01l0.672,0.229l6.672,1.696l0.612,0.109
				c4.294,0.776,8.546,1.17,12.633,1.17c13.516,0,25.938-4.068,39.1-12.806l0.643-0.427l0.327-0.237
				c15.766-11.472,25.897-27.521,29.305-46.405c0.152-0.863,0.392-1.467,0.851-2.177c0.452-0.678,1.007-1.257,1.742-1.773
				c0.62-0.432,1.313-0.724,2.247-0.939c0.456-0.104,0.819-0.146,1.188-0.146c0.319,0,0.664,0.033,1.044,0.104
				c1.317,0.234,1.771,0.54,1.94,0.655c0.921,0.612,1.472,1.155,2.026,1.948c0.452,0.652,0.732,1.309,0.945,2.248
				c0.168,0.743,0.179,1.429,0.031,2.249c-4.228,23.438-15.296,40.684-34.827,54.254c-14.726,10.231-29.955,15.204-46.557,15.204
				c-5.181,0-10.614-0.491-16.161-1.459l-7.447-1.896c-21.387-6.91-36.528-19.576-47.618-39.832l-109.028-194.57l10.438-5.712
				L416.638,497.164z"/>
		</g>
		<g>
			<polygon fill="#FFFFFF" points="538.28,473.168 537.441,476.302 541.183,477.297 540.115,481.267 558.672,486.22 559.731,482.25 
				563.464,483.244 564.303,480.1 560.569,479.105 561.731,474.77 565.463,475.764 566.299,472.627 562.564,471.627 
				563.621,467.657 545.071,462.715 544.014,466.685 540.277,465.683 539.434,468.832 543.175,469.829 542.019,474.16 			"/>
		</g>
	</g>
	<g>
		<g>
			<path d="M290.475,415.425l-1.333-15.239c7.52-0.661,14.99-2.106,22.2-4.306l4.46,14.63
				C307.579,413.018,299.059,414.671,290.475,415.425z M264.683,414.993c-8.56-1.038-17.026-2.978-25.154-5.768l4.967-14.472
				c7.116,2.445,14.529,4.145,22.031,5.055L264.683,414.993z M216.134,398.333c-7.347-4.415-14.278-9.637-20.604-15.526
				l10.421-11.199c5.55,5.169,11.627,9.745,18.062,13.614L216.134,398.333z M378.286,366.73l-12.209-9.218
				c4.549-6.021,8.465-12.535,11.646-19.357l13.868,6.462C387.958,352.411,383.478,359.852,378.286,366.73z M178.568,363.37
				c-4.959-7.046-9.179-14.639-12.547-22.562l14.079-5.989c2.945,6.937,6.64,13.584,10.978,19.753L178.568,363.37z M399.979,320.214
				l-14.906-3.427c1.685-7.347,2.61-14.896,2.74-22.446l15.296,0.265C402.956,303.217,401.903,311.834,399.979,320.214z
				 M158.461,316.129c-1.292-6.647-2.048-13.45-2.241-20.214c-0.052-1.825-0.063-3.647-0.035-5.477l15.293,0.233
				c-0.021,1.606-0.009,3.21,0.034,4.809c0.17,5.934,0.828,11.897,1.964,17.723L158.461,316.129z M385.851,271.801
				c-1.428-7.41-3.642-14.687-6.579-21.624l14.082-5.965c3.357,7.924,5.888,16.234,7.52,24.694L385.851,271.801z M174.187,268.225
				l-14.912-3.406c1.921-8.405,4.733-16.624,8.355-24.418l13.871,6.442C178.328,253.674,175.868,260.865,174.187,268.225z
				 M368.318,230.413c-4.31-6.147-9.303-11.888-14.844-17.065l-0.296-0.271l10.505-11.123l0.164,0.159
				c6.383,5.953,12.077,12.501,17,19.516L368.318,230.413z M193.128,227.476l-12.212-9.205c2.63-3.489,5.475-6.882,8.468-10.084
				c2.884-3.087,5.942-6.053,9.086-8.8l10.065,11.516c-2.757,2.41-5.439,5.009-7.972,7.721
				C197.938,221.435,195.438,224.418,193.128,227.476z M335.15,199.537c-6.467-3.87-13.362-7.068-20.496-9.504l4.938-14.476
				c8.153,2.781,16.032,6.434,23.415,10.86L335.15,199.537z M227.017,197.881l-7.448-13.36c7.52-4.193,15.512-7.598,23.75-10.126
				l4.483,14.624C240.589,191.234,233.598,194.212,227.017,197.881z M292.609,185.019c-7.436-0.892-15.01-1.011-22.616-0.344
				l-1.35-15.234c8.647-0.765,17.3-0.63,25.792,0.385L292.609,185.019z"/>
		</g>
	</g>
	<g>
		<path d="M147.419,37.461c25.89,8.225,44.967,24.065,58.27,48.362l117.694,210.028l-41.53,22.736L163.177,106.776
			c-6.755-12.348-16.066-19.352-29.389-23.899l-5.38-1.367c-14.516-2.623-26.23,0.628-38.783,8.961l-0.34,0.225
			c-12.178,8.864-19.677,20.709-22.293,35.224c-0.568,3.164-1.684,5.995-3.427,8.68c-1.782,2.682-3.896,4.859-6.435,6.639
			c-2.573,1.785-5.359,2.997-8.506,3.708c-3.095,0.709-6.141,0.773-9.308,0.2c-3.334-0.6-6.199-1.717-8.725-3.43
			c-2.637-1.739-4.785-3.858-6.602-6.458c-1.786-2.561-2.988-5.33-3.704-8.474c-0.695-3.095-0.762-6.155-0.196-9.308
			C25.143,89.477,38.933,68,62.25,51.798c23.332-16.207,48.367-21.611,76.568-16.526L147.419,37.461z"/>
	</g>
	<g>
		<path fill="#FFFFFF" d="M178.637,98.115c-8.532-15.599-20.989-25.818-39.123-32.009l-0.672-0.229l-6.672-1.697l-0.611-0.109
			c-4.295-0.776-8.547-1.169-12.634-1.169c-13.516,0-25.938,4.069-39.1,12.805l-0.644,0.426l-0.326,0.238
			C63.09,87.843,52.957,103.893,49.55,122.775c-0.152,0.863-0.392,1.469-0.851,2.178c-0.453,0.679-1.007,1.258-1.742,1.774
			c-0.621,0.43-1.313,0.724-2.248,0.938c-0.456,0.104-0.819,0.146-1.188,0.146c-0.319,0-0.663-0.034-1.043-0.104
			c-1.318-0.236-1.771-0.542-1.941-0.657c-0.92-0.612-1.471-1.154-2.025-1.948c-0.453-0.651-0.732-1.309-0.946-2.249
			c-0.167-0.742-0.179-1.429-0.032-2.249c4.229-23.437,15.296-40.684,34.828-54.254c14.725-10.23,29.955-15.203,46.557-15.203
			c5.18,0,10.614,0.491,16.161,1.458l7.447,1.896c21.388,6.909,36.528,19.577,47.618,39.831l109.028,194.57l-10.438,5.713
			L178.637,98.115z"/>
	</g>
	<g>
		<path fill="none" d="M63.072,172.964"/>
	</g>
	<g>
		<path d="M249.344,294.448c-10.871-0.669-21.938-1.056-32.431-4.251c-0.266-0.087-0.519-0.197-0.765-0.324L79.372,557.276h66.459
			l132.539-258.624C268.681,297.349,259.165,295.047,249.344,294.448z"/>
		<path d="M148.538,561.708H72.129L214.232,283.89l3.955,2.05c9.021,2.761,18.849,3.34,28.353,3.901l3.077,0.185
			c6.436,0.394,12.73,1.486,18.817,2.543c3.456,0.601,7.03,1.223,10.526,1.692l6.209,0.835L148.538,561.708z M86.614,552.848h56.509
			l128.499-250.742c-1.584-0.263-3.156-0.536-4.705-0.807c-6.118-1.063-11.896-2.065-17.843-2.429l-3.057-0.183
			c-9.1-0.537-18.48-1.09-27.625-3.471L86.614,552.848z"/>
	</g>
	<g>
		<path d="M375.237,293.189c-0.418,52.779-43.548,95.236-96.342,94.827c-52.79-0.421-95.245-43.566-94.83-96.345
			c0.415-52.801,43.551-95.275,96.34-94.832C333.208,197.25,375.665,240.394,375.237,293.189z"/>
	</g>
	<g>
		<path d="M375.237,293.189c-0.418,52.779-43.548,95.236-96.342,94.827c-52.79-0.421-95.245-43.566-94.83-96.345
			c0.415-52.801,43.551-95.275,96.34-94.832C333.208,197.25,375.665,240.394,375.237,293.189z"/>
		<path d="M279.65,388.492l-0.759-0.003c-52.965-0.424-95.715-43.856-95.299-96.821c0.413-52.551,43.476-95.303,95.994-95.303
			l0.824,0.003c25.662,0.199,49.709,10.382,67.71,28.671c17.999,18.289,27.798,42.494,27.59,68.155
			C375.292,345.742,332.201,388.492,279.65,388.492z M279.586,197.309c-52.001,0-94.639,42.333-95.048,94.367
			c-0.413,52.443,41.917,95.45,94.361,95.868l0.751,0.003c52.034,0,94.703-42.329,95.114-94.361
			c0.206-25.409-9.495-49.375-27.318-67.483c-17.823-18.109-41.633-28.192-67.044-28.389L279.586,197.309z"/>
	</g>
	<g>
		<path fill="#FFFFFF" d="M236.518,309.173L119.213,536.215l5.295,2.464l117.053-226.106
			C239.393,312.665,237.172,311.223,236.518,309.173z"/>
		<path fill="#FFFFFF" d="M125.284,540.949l-8.439-3.924l120.052-232.36l1.272,3.98c0.393,1.232,1.797,2.2,3.195,2.2l2.988-0.129
			l-1.25,2.653L125.284,540.949z M121.582,535.405l2.152,1l115.21-222.544c-0.813-0.309-1.566-0.765-2.208-1.336L121.582,535.405z"
			/>
	</g>
	<g>
		<path d="M137.099,535.551"/>
	</g>
	<g>
		<path d="M137.099,535.551"/>
	</g>
	<g>
		<path d="M265.289,255.433"/>
	</g>
	<g>
		<path d="M294,329.435"/>
	</g>
	<g>
		<path d="M295.208,324.82c-1.353,0.686-2.714,1.272-4.124,1.806l12.968,3.415l-3.54,13.447c1.11-0.478,2.201-0.98,3.291-1.535
			l3.669-13.898L295.208,324.82z"/>
		<path d="M296.471,348.183l4.266-16.21l-18.566-4.888l7.957-3c1.387-0.521,2.648-1.073,3.854-1.686l0.921-0.465l15.886,4.188
			l-4.672,17.699l-1.085,0.552c-1.079,0.546-2.206,1.073-3.446,1.606L296.471,348.183z"/>
	</g>
	<g>
		<polygon points="312.087,322.173 314.083,323.435 312.836,325.432 314.484,326.486 315.748,324.484 317.744,325.735 
			318.795,324.068 316.784,322.817 318.042,320.81 316.384,319.782 315.124,321.769 313.143,320.522 		"/>
		<path d="M314.693,327.427l-2.786-1.787l1.244-1.992l-2.003-1.268l1.786-2.792l1.979,1.246l1.258-1.98l2.809,1.74l-1.261,2.008
			l2.015,1.251l-1.778,2.817l-1.996-1.252L314.693,327.427z M313.767,325.222l0.508,0.325l1.26-1.997l1.996,1.251l0.326-0.517
			l-2.011-1.251l1.26-2.006l-0.509-0.313l-1.263,1.988l-1.984-1.248l-0.324,0.508l1.99,1.26L313.767,325.222z"/>
	</g>
	<g>
		<path d="M294,329.435"/>
	</g>
	<g>
		<path d="M254.042,266.545c14.301-14.133,37.335-13.984,51.494,0.299c14.122,14.296,14.001,37.335-0.296,51.484
			c-14.302,14.137-37.344,14.002-51.472-0.292C239.626,303.742,239.762,280.694,254.042,266.545z"/>
	</g>
	<g>
		<g>
			<g>
				<path fill="#FFFFFF" d="M279.636,364.244c-2.663,0-5.359-0.152-8.01-0.453l0.571-5.065c4.955,0.558,10.023,0.558,14.926-0.006
					l0.577,5.065C285.044,364.089,282.33,364.244,279.636,364.244z M255.96,360.212c-5.062-1.768-9.937-4.112-14.482-6.962
					l2.706-4.319c4.226,2.647,8.754,4.822,13.461,6.47L255.96,360.212z M303.581,360.116l-1.924-4.727l0.269-0.096
					c4.69-1.653,9.212-3.842,13.397-6.486l2.723,4.309C313.538,355.966,308.671,358.321,303.581,360.116z M330.582,343.057
					l-3.617-3.593c3.499-3.527,6.617-7.467,9.262-11.712l4.327,2.699C337.706,335.017,334.351,339.259,330.582,343.057z
					 M211.896,316.217c-1.786-5.082-3-10.347-3.606-15.663l5.065-0.577c0.565,4.935,1.693,9.83,3.352,14.549L211.896,316.217z
					 M347.479,315.951l-4.818-1.672c1.64-4.718,2.743-9.617,3.288-14.56l5.07,0.561C350.432,305.6,349.241,310.872,347.479,315.951z
					 M213.339,285.049l-5.065-0.571c0.597-5.324,1.8-10.594,3.568-15.665l4.816,1.679
					C215.012,275.206,213.896,280.104,213.339,285.049z M345.912,284.792c-0.57-4.929-1.707-9.823-3.371-14.546l4.805-1.695
					c1.795,5.081,3.018,10.347,3.632,15.654L345.912,284.792z M223.116,257.034l-4.321-2.705c2.853-4.557,6.216-8.792,9.995-12.588
					l3.611,3.6C228.894,248.865,225.77,252.799,223.116,257.034z M336.042,256.803c-2.657-4.214-5.795-8.133-9.329-11.647
					l3.594-3.616c3.808,3.784,7.188,8.006,10.049,12.546L336.042,256.803z M244.063,236.019l-2.717-4.314
					c4.485-2.825,9.319-5.161,14.367-6.943l0.949,2.367l0.765,2.432C252.719,231.225,248.228,233.397,244.063,236.019z
					 M315.011,235.879c-4.228-2.639-8.759-4.807-13.469-6.448l1.678-4.817c5.065,1.765,9.94,4.101,14.491,6.94L315.011,235.879z
					 M272.058,226.167l-0.588-5.065c5.318-0.618,10.77-0.628,16.077-0.036l-0.564,5.065
					C282.061,225.583,276.994,225.596,272.058,226.167z"/>
			</g>
		</g>
	</g>
	<g>
		<g>
			<g>
				<path fill="#FFFFFF" d="M335.671,292.426c0-30.97-25.059-56.03-56.027-56.03c-30.97,0-56.029,25.06-56.029,56.03
					c0,30.971,25.059,56.032,56.029,56.032C310.613,348.458,335.671,323.396,335.671,292.426z"/>
			</g>
		</g>
		<g>
			<g>
				<g>
					<path fill="#FFFFFF" d="M279.645,339.459c-25.932,0-47.029-21.101-47.029-47.033c0-25.933,21.097-47.03,47.029-47.03
						s47.028,21.097,47.028,47.03C326.672,318.358,305.577,339.459,279.645,339.459z"/>
				</g>
			</g>
			<g>
				<g>
					<path d="M279.645,249.827c23.543,0,42.597,19.054,42.597,42.599c0,23.548-19.054,42.602-42.597,42.602
						c-23.545,0-42.599-19.054-42.599-42.602C237.045,268.881,256.099,249.827,279.645,249.827 M279.645,240.965
						c-28.375,0-51.46,23.085-51.46,51.46c0,28.375,23.085,51.462,51.46,51.462c28.375,0,51.459-23.087,51.459-51.462
						C331.104,264.05,308.019,240.965,279.645,240.965L279.645,240.965z"/>
				</g>
			</g>
		</g>
		<g>
			<g>
				<rect x="278.168" y="292.426" width="2.953" height="42.602"/>
			</g>
		</g>
		<g>
			<g>
				
					<rect x="276.791" y="301.6" transform="matrix(0.8661 0.4999 -0.4999 0.8661 191.4419 -108.4344)" width="42.609" height="2.953"/>
			</g>
		</g>
		<g>
			<g>
				
					<rect x="296.618" y="260.471" transform="matrix(0.4998 0.8661 -0.8661 0.4998 393.1471 -117.2529)" width="2.954" height="42.608"/>
			</g>
		</g>
		<g>
			<g>
				<rect x="278.168" y="249.827" width="2.953" height="42.599"/>
			</g>
		</g>
		<g>
			<g>
				
					<rect x="239.889" y="280.298" transform="matrix(0.8661 0.4999 -0.4999 0.8661 175.842 -92.8371)" width="42.609" height="2.954"/>
			</g>
		</g>
		<g>
			<g>
				
					<rect x="259.717" y="281.772" transform="matrix(0.5001 0.866 -0.866 0.5001 393.0148 -74.6803)" width="2.952" height="42.61"/>
			</g>
		</g>
		<g>
			<g>
				<path d="M322.059,272.602h-84.831l42.416-24.479L322.059,272.602z M248.255,269.648h62.778l-31.389-18.117L248.255,269.648z"/>
			</g>
		</g>
		<g>
			<g>
				<path d="M279.104,337.043l-12.611-21.837h-25.228v-49.593l26.933,46.639h53.861L279.104,337.043z M269.903,315.206
					l10.281,17.805l30.849-17.805H269.903z M264.787,312.252l-20.568-35.618v35.618H264.787z"/>
			</g>
		</g>
		<g>
			<g>
				<polygon points="280.185,337.043 242.003,315.009 243.48,312.449 279.104,333.011 318.022,265.613 318.022,313.728 
					315.069,313.728 315.069,276.634 				"/>
			</g>
		</g>
		<g>
			<g>
				<path d="M279.645,336.734l-38.92-22.469l38.92-67.395l38.921,67.395L279.645,336.734z M244.759,313.187l34.885,20.139
					l34.886-20.139l-34.886-60.41L244.759,313.187z"/>
			</g>
		</g>
		<g>
			<g>
				<path fill="#FFFFFF" d="M283.904,249.827c0,2.35-1.903,4.257-4.26,4.257c-2.357,0-4.261-1.907-4.261-4.257
					c0-2.357,1.903-4.263,4.261-4.263C282.001,245.563,283.904,247.469,283.904,249.827z"/>
			</g>
			<g>
				<path d="M279.645,255.56c-3.164,0-5.737-2.572-5.737-5.733c0-3.167,2.573-5.74,5.737-5.74c3.163,0,5.737,2.573,5.737,5.74
					C285.381,252.988,282.808,255.56,279.645,255.56z M279.645,247.04c-1.535,0-2.784,1.25-2.784,2.787
					c0,1.533,1.25,2.78,2.784,2.78s2.783-1.248,2.783-2.78C282.428,248.29,281.179,247.04,279.645,247.04z"/>
			</g>
		</g>
		<g>
			<g>
				<path fill="#FFFFFF" d="M283.904,335.027c0,2.354-1.903,4.265-4.26,4.265c-2.357,0-4.261-1.91-4.261-4.265
					c0-2.35,1.903-4.254,4.261-4.254C282.001,330.773,283.904,332.678,283.904,335.027z"/>
			</g>
			<g>
				<path d="M279.645,340.768c-3.164,0-5.737-2.574-5.737-5.74c0-3.161,2.573-5.732,5.737-5.732c3.163,0,5.737,2.571,5.737,5.732
					C285.381,338.193,282.808,340.768,279.645,340.768z M279.645,332.251c-1.535,0-2.784,1.246-2.784,2.776
					c0,1.538,1.25,2.786,2.784,2.786s2.783-1.248,2.783-2.786C282.428,333.497,281.179,332.251,279.645,332.251z"/>
			</g>
		</g>
		<g>
			<g>
				<path fill="#FFFFFF" d="M247.002,313.728c0,2.353-1.906,4.26-4.26,4.26c-2.356,0-4.26-1.907-4.26-4.26s1.903-4.26,4.26-4.26
					C245.096,309.468,247.002,311.375,247.002,313.728z"/>
			</g>
			<g>
				<path d="M242.742,319.462c-3.163,0-5.737-2.57-5.737-5.734c0-3.161,2.574-5.734,5.737-5.734s5.737,2.573,5.737,5.734
					C248.479,316.892,245.905,319.462,242.742,319.462z M242.742,310.946c-1.535,0-2.783,1.249-2.783,2.781
					c0,1.535,1.249,2.781,2.783,2.781s2.784-1.246,2.784-2.781C245.525,312.195,244.276,310.946,242.742,310.946z"/>
			</g>
		</g>
		<g>
			<g>
				<path fill="#FFFFFF" d="M320.806,313.728c0,2.353-1.904,4.26-4.261,4.26c-2.354,0-4.256-1.907-4.256-4.26s1.902-4.26,4.256-4.26
					C318.902,309.468,320.806,311.375,320.806,313.728z"/>
			</g>
			<g>
				<path d="M316.545,319.462c-3.161,0-5.733-2.57-5.733-5.734c0-3.161,2.572-5.734,5.733-5.734c3.164,0,5.737,2.573,5.737,5.734
					C322.283,316.892,319.709,319.462,316.545,319.462z M316.545,310.946c-1.532,0-2.779,1.249-2.779,2.781
					c0,1.535,1.247,2.781,2.779,2.781c1.536,0,2.784-1.246,2.784-2.781C319.33,312.195,318.082,310.946,316.545,310.946z"/>
			</g>
		</g>
		<g>
			<g>
				<path fill="#FFFFFF" d="M247.002,271.124c0,2.355-1.906,4.261-4.26,4.261c-2.356,0-4.26-1.905-4.26-4.261
					c0-2.35,1.903-4.254,4.26-4.254C245.096,266.87,247.002,268.774,247.002,271.124z"/>
			</g>
			<g>
				<path d="M242.742,276.861c-3.163,0-5.737-2.574-5.737-5.738c0-3.16,2.574-5.73,5.737-5.73s5.737,2.571,5.737,5.73
					C248.479,274.288,245.905,276.861,242.742,276.861z M242.742,268.347c-1.535,0-2.783,1.247-2.783,2.777
					c0,1.536,1.249,2.784,2.783,2.784s2.784-1.249,2.784-2.784C245.525,269.594,244.276,268.347,242.742,268.347z"/>
			</g>
		</g>
		<g>
			<g>
				<path fill="#FFFFFF" d="M320.806,271.124c0,2.355-1.904,4.261-4.261,4.261c-2.354,0-4.256-1.905-4.256-4.261
					c0-2.35,1.902-4.254,4.256-4.254C318.902,266.87,320.806,268.774,320.806,271.124z"/>
			</g>
			<g>
				<path d="M316.545,276.861c-3.161,0-5.733-2.574-5.733-5.738c0-3.16,2.572-5.73,5.733-5.73c3.164,0,5.737,2.571,5.737,5.73
					C322.283,274.288,319.709,276.861,316.545,276.861z M316.545,268.347c-1.532,0-2.779,1.247-2.779,2.777
					c0,1.536,1.247,2.784,2.779,2.784c1.536,0,2.784-1.249,2.784-2.784C319.33,269.594,318.082,268.347,316.545,268.347z"/>
			</g>
		</g>
	</g>
	<g>
		<polygon fill="#FFFFFF" points="56.995,122.113 57.834,118.978 54.093,117.983 55.161,114.014 36.603,109.06 35.544,113.03 
			31.811,112.036 30.972,115.182 34.707,116.175 33.544,120.512 29.813,119.516 28.976,122.652 32.711,123.652 31.655,127.622 
			50.205,132.564 51.261,128.595 54.999,129.598 55.841,126.447 52.1,125.45 53.257,121.12 		"/>
	</g>
	<g>
		<g>
			<path fill="#FFFFFF" d="M151.063,533.521c4.084-12.39-2.671-25.745-15.06-29.826c-12.399-4.082-25.754,2.658-29.833,15.064
				c-4.082,12.393,2.656,25.747,15.06,29.826C133.627,552.67,146.981,545.927,151.063,533.521z M113.006,520.999
				c2.838-8.614,12.123-13.294,20.75-10.467c8.612,2.839,13.299,12.123,10.464,20.748c-2.835,8.614-12.12,13.303-20.738,10.467
				C114.864,538.908,110.176,529.622,113.006,520.999z"/>
			<path fill="#FFFFFF" d="M128.625,550.902C128.624,550.902,128.625,550.902,128.625,550.902c-2.625,0-5.231-0.421-7.746-1.249
				c-6.283-2.067-11.384-6.456-14.363-12.357c-2.979-5.901-3.48-12.608-1.412-18.89c3.348-10.186,12.794-17.026,23.505-17.026
				c2.624,0,5.229,0.418,7.745,1.246c6.278,2.07,11.377,6.459,14.358,12.36c2.983,5.901,3.485,12.611,1.417,18.887
				C148.778,544.059,139.332,550.902,128.625,550.902z M128.609,503.626c-9.739,0-18.328,6.221-21.372,15.482
				c-1.881,5.71-1.425,11.812,1.283,17.177c2.709,5.366,7.347,9.355,13.061,11.234c2.289,0.754,4.658,1.137,7.044,1.137
				c9.735,0,18.324-6.224,21.371-15.485c1.881-5.707,1.423-11.806-1.288-17.174c-2.711-5.366-7.347-9.355-13.056-11.237
				C133.364,504.006,130.994,503.626,128.609,503.626z M128.619,543.697c-1.859,0-3.705-0.298-5.487-0.882
				c-9.189-3.027-14.21-12.97-11.192-22.166c2.376-7.216,9.081-12.064,16.681-12.064c1.858,0,3.704,0.298,5.486,0.879
				c9.188,3.03,14.203,12.973,11.181,22.166C142.912,538.848,136.213,543.697,128.619,543.697z M128.621,510.83
				c-6.628,0-12.475,4.229-14.548,10.521c-2.632,8.019,1.747,16.69,9.761,19.33c1.555,0.511,3.165,0.771,4.785,0.771
				c6.623,0,12.464-4.229,14.536-10.524c2.636-8.016-1.738-16.688-9.75-19.33C131.852,511.09,130.241,510.83,128.621,510.83z"/>
		</g>
		<g>
			<path d="M115.239,514.224"/>
		</g>
		<g>
			<path d="M115.7,516.336c0.401-0.558,0.836-1.077,1.283-1.579l-5.91,1.297l-1.339-6.131c-0.345,0.421-0.68,0.855-1.009,1.296
				l1.382,6.333L115.7,516.336z"/>
			<path d="M109.171,519.008l-1.761-8.073l0.334-0.448c0.341-0.456,0.687-0.904,1.045-1.339l1.603-1.953l1.617,7.401l8.386-1.842
				l-2.495,2.813c-0.509,0.574-0.881,1.033-1.206,1.484l-0.275,0.382L109.171,519.008z"/>
		</g>
		<g>
			<path d="M141.988,538.053"/>
		</g>
		<g>
			<polygon points="109.464,520.865 108.402,520.765 108.492,519.704 107.621,519.633 107.52,520.686 106.461,520.592 
				106.381,521.485 107.448,521.573 107.35,522.636 108.235,522.71 108.325,521.652 109.383,521.745 			"/>
			<path d="M108.515,523.04l-1.498-0.126l0.099-1.06l-1.067-0.09l0.136-1.503l1.06,0.093l0.101-1.052l1.478,0.123l-0.09,1.063
				l1.063,0.102l-0.136,1.486l-1.057-0.094L108.515,523.04z M107.683,522.357l0.272,0.021l0.09-1.06l1.061,0.093l0.025-0.271
				l-1.06-0.102l0.09-1.055l-0.265-0.021l-0.101,1.055l-1.057-0.093l-0.025,0.278l1.068,0.09L107.683,522.357z"/>
		</g>
		<g>
			<path d="M141.527,535.946c-0.401,0.558-0.831,1.074-1.286,1.571l5.913-1.292l1.341,6.131c0.352-0.418,0.684-0.842,1.01-1.293
				l-1.385-6.335L141.527,535.946z"/>
			<path d="M146.83,545.047l-1.611-7.362l-8.481,1.853l2.599-2.845c0.458-0.503,0.85-0.98,1.196-1.462l0.274-0.382l7.248-1.577
				l1.763,8.065l-0.321,0.442c-0.343,0.476-0.694,0.924-1.065,1.363L146.83,545.047z"/>
		</g>
		<g>
			<polygon points="147.763,531.414 148.824,531.51 148.737,532.569 149.614,532.651 149.709,531.592 150.768,531.685 
				150.846,530.794 149.779,530.709 149.88,529.641 148.997,529.57 148.902,530.625 147.85,530.531 			"/>
			<path d="M149.892,532.985l-1.484-0.14l0.086-1.058l-1.066-0.096l0.146-1.491l1.05,0.093l0.094-1.055l1.495,0.123l-0.101,1.065
				l1.065,0.088l-0.132,1.5l-1.059-0.094L149.892,532.985z M149.067,532.294l0.27,0.024l0.094-1.06l1.059,0.093l0.024-0.276
				l-1.069-0.087l0.101-1.066l-0.271-0.021l-0.096,1.058l-1.055-0.093l-0.027,0.272l1.057,0.096L149.067,532.294z"/>
		</g>
		<g>
			<path d="M141.988,538.053"/>
		</g>
		<g>
			<path d="M113.006,520.999c2.838-8.614,12.123-13.294,20.75-10.467c8.612,2.839,13.299,12.123,10.464,20.748
				c-2.835,8.614-12.12,13.303-20.738,10.467C114.864,538.908,110.176,529.622,113.006,520.999z"/>
		</g>
	</g>
</g>
</svg>
