<?xml version="1.0" encoding="utf-8"?>
<!-- Generator: Adobe Illustrator 15.0.0, SVG Export Plug-In . SVG Version: 6.00 Build 0)  -->
<!DOCTYPE svg PUBLIC "-//W3C//DTD SVG 1.1//EN" "http://www.w3.org/Graphics/SVG/1.1/DTD/svg11.dtd">
<svg version="1.1" id="Layer_1" xmlns="http://www.w3.org/2000/svg" xmlns:xlink="http://www.w3.org/1999/xlink" x="0px" y="0px"
	 width="550px" height="350px" viewBox="0 0 841.89 595.28" enable-background="new 0 0 841.89 595.28" xml:space="preserve">
<g>
	<g>
		<path d="M219.056,358.725l-0.953-10.894c5.375-0.473,10.716-1.506,15.871-3.079l3.188,10.459
			C231.283,357.005,225.192,358.186,219.056,358.725z M200.618,358.417c-6.12-0.742-12.171-2.13-17.982-4.124l3.551-10.345
			c5.087,1.748,10.386,2.963,15.75,3.612L200.618,358.417z M165.911,346.507c-5.252-3.156-10.207-6.889-14.729-11.1l7.45-8.006
			c3.967,3.694,8.312,6.967,12.912,9.732L165.911,346.507z M281.83,323.914l-8.728-6.59c3.251-4.304,6.052-8.961,8.326-13.838
			l9.914,4.619C288.744,313.679,285.542,318.996,281.83,323.914z M139.056,321.512c-3.545-5.037-6.562-10.464-8.97-16.129
			l10.064-4.28c2.105,4.959,4.747,9.71,7.848,14.12L139.056,321.512z M297.338,290.661l-10.656-2.45
			c1.204-5.252,1.866-10.648,1.959-16.046l10.935,0.19C299.466,278.511,298.713,284.67,297.338,290.661z M124.682,287.741
			c-0.924-4.751-1.464-9.615-1.602-14.45c-0.038-1.305-0.045-2.608-0.025-3.916l10.933,0.167c-0.015,1.148-0.006,2.295,0.024,3.437
			c0.122,4.242,0.592,8.506,1.404,12.671L124.682,287.741z M287.239,256.052c-1.021-5.297-2.604-10.5-4.703-15.458l10.066-4.264
			c2.4,5.665,4.208,11.605,5.375,17.653L287.239,256.052z M135.924,253.496l-10.66-2.435c1.373-6.009,3.383-11.883,5.973-17.457
			l9.916,4.606C138.885,243.093,137.126,248.233,135.924,253.496z M274.704,226.463c-3.081-4.394-6.65-8.498-10.611-12.199
			l-0.212-0.194l7.51-7.951l0.118,0.113c4.563,4.256,8.633,8.937,12.153,13.951L274.704,226.463z M149.465,224.364l-8.73-6.58
			c1.88-2.495,3.914-4.92,6.054-7.209c2.062-2.208,4.248-4.328,6.496-6.291l7.196,8.231c-1.971,1.724-3.889,3.582-5.699,5.52
			C152.904,220.046,151.116,222.179,149.465,224.364z M250.994,204.392c-4.623-2.767-9.553-5.054-14.652-6.794l3.53-10.349
			c5.829,1.988,11.46,4.6,16.739,7.763L250.994,204.392z M173.691,203.208l-5.324-9.551c5.375-2.999,11.089-5.432,16.978-7.24
			l3.205,10.454C183.394,198.456,178.396,200.585,173.691,203.208z M220.582,194.012c-5.315-0.637-10.73-0.722-16.167-0.246
			l-0.965-10.891c6.182-0.546,12.368-0.45,18.438,0.276L220.582,194.012z"/>
	</g>
	<path d="M116.789,88.527c18.508,5.88,32.146,17.204,41.656,34.574l84.137,150.144L212.893,289.5l-84.839-151.42
		c-4.829-8.828-11.485-13.834-21.009-17.085l-3.846-0.978c-10.377-1.875-18.751,0.45-27.725,6.407l-0.243,0.161
		c-8.706,6.336-14.067,14.805-15.937,25.181c-0.406,2.262-1.204,4.285-2.45,6.205c-1.274,1.917-2.786,3.474-4.6,4.747
		c-1.839,1.276-3.831,2.142-6.081,2.651c-2.212,0.507-4.39,0.553-6.654,0.143c-2.383-0.429-4.431-1.227-6.237-2.452
		c-1.885-1.244-3.421-2.759-4.72-4.617c-1.276-1.831-2.136-3.811-2.647-6.058c-0.497-2.212-0.544-4.4-0.14-6.654
		c3.612-20.017,13.471-35.371,30.14-46.953C72.583,87.19,90.48,83.327,110.64,86.962L116.789,88.527z"/>
	<path fill="#FFFFFF" d="M139.105,131.887c-6.099-11.151-15.005-18.457-27.968-22.882l-0.48-0.164l-4.77-1.212l-0.437-0.079
		c-3.07-0.555-6.11-0.836-9.032-0.836c-9.662,0-18.543,2.909-27.952,9.154l-0.46,0.305l-0.233,0.169
		c-11.271,8.202-18.514,19.675-20.95,33.175c-0.109,0.617-0.28,1.049-0.608,1.557c-0.324,0.485-0.72,0.899-1.246,1.268
		c-0.443,0.308-0.938,0.518-1.606,0.67c-0.326,0.074-0.585,0.105-0.85,0.105c-0.229,0-0.474-0.025-0.746-0.074
		c-0.942-0.169-1.266-0.388-1.388-0.47c-0.658-0.437-1.052-0.825-1.448-1.392c-0.324-0.466-0.523-0.936-0.676-1.608
		c-0.12-0.53-0.128-1.021-0.022-1.606c3.023-16.755,10.935-29.084,24.898-38.786c10.526-7.313,21.414-10.868,33.282-10.868
		c3.703,0,7.588,0.351,11.553,1.042l5.324,1.355c15.29,4.939,26.113,13.996,34.041,28.475l77.942,139.094l-7.462,4.085
		L139.105,131.887z"/>
	<g>
		<g>
			<path d="M398.172,422.74c-12.007,0-22.03,4.186-30.647,12.8c-8.532,8.539-12.681,18.564-12.681,30.647
				c0,12.17,4.149,22.234,12.681,30.767c8.539,8.534,18.562,12.683,30.647,12.683c1.602,0,3.097-0.301,4.586-0.926
				c1.47-0.627,2.72-1.466,3.821-2.568c1.113-1.118,1.958-2.359,2.565-3.771c0.627-1.423,0.932-2.94,0.932-4.638
				c0-1.61-0.303-3.109-0.924-4.577c-0.629-1.479-1.47-2.732-2.578-3.84c-1.093-1.091-2.34-1.928-3.827-2.569
				c-1.473-0.618-2.969-0.922-4.576-0.922c-5.313,0-9.999-1.905-13.968-5.713c-3.765-3.922-5.672-8.607-5.672-13.925
				c0-5.398,1.914-10.05,5.691-13.825c3.852-3.854,8.545-5.807,13.949-5.807c5.398,0,10.093,1.952,13.949,5.807
				c3.852,3.854,5.807,8.505,5.807,13.825v31.546c0,3.256,1.175,6.087,3.499,8.411c2.317,2.317,5.103,3.492,8.283,3.492
				c1.608,0,3.104-0.301,4.583-0.926c1.477-0.627,2.732-1.466,3.834-2.573c1.099-1.107,1.938-2.34,2.568-3.783
				c0.619-1.425,0.918-2.935,0.918-4.621v-31.546c0-12.081-4.192-22.11-12.805-30.649
				C420.274,426.926,410.251,422.74,398.172,422.74z"/>
			<path d="M500.276,457.791c-1.089-1.099-2.339-1.94-3.833-2.577c-3.029-1.285-6.43-1.221-9.213-0.009
				c-1.428,0.627-2.638,1.462-3.716,2.571c-1.07,1.122-1.891,2.376-2.506,3.827c-0.624,1.458-0.928,2.957-0.928,4.584v31.546
				c0,3.258,1.176,6.083,3.489,8.396c2.315,2.328,5.105,3.507,8.293,3.507c1.6,0,3.097-0.301,4.588-0.926
				c1.47-0.627,2.722-1.47,3.816-2.566c1.107-1.107,1.951-2.345,2.58-3.786c0.618-1.425,0.919-2.937,0.919-4.625v-31.546
				c0-1.606-0.301-3.104-0.924-4.575C502.223,460.146,501.379,458.895,500.276,457.791z"/>
			<path d="M491.863,422.74c-12.001,0-22.023,4.186-30.645,12.8c-8.533,8.537-12.682,18.563-12.682,30.647v31.546
				c0,3.262,1.178,6.091,3.495,8.4c2.315,2.324,5.104,3.503,8.287,3.503c1.685,0,3.221-0.301,4.707-0.926
				c1.471-0.627,2.701-1.447,3.764-2.509c1.052-1.056,1.872-2.285,2.503-3.762c0.627-1.459,0.93-2.998,0.93-4.707v-31.546
				c0-5.393,1.916-10.044,5.689-13.823c3.857-3.854,8.553-5.809,13.951-5.809c5.404,0,10.096,1.952,13.949,5.807
				c3.854,3.854,5.807,8.505,5.807,13.825v31.546c0,3.248,1.175,6.076,3.499,8.411c2.317,2.317,5.105,3.492,8.289,3.492
				c1.604,0,3.099-0.301,4.586-0.926c1.47-0.627,2.72-1.466,3.829-2.575c1.115-1.128,1.954-2.367,2.559-3.765
				c0.625-1.421,0.93-2.937,0.93-4.638v-31.546c0-12.079-4.193-22.108-12.809-30.649C513.966,426.926,503.942,422.74,491.863,422.74
				z"/>
			<path d="M803.593,435.538c-8.534-8.612-18.558-12.798-30.639-12.798c-12.005,0-22.028,4.186-30.645,12.8
				c-8.533,8.539-12.682,18.564-12.682,30.647c0,12.17,4.148,22.234,12.682,30.767c8.538,8.534,18.56,12.683,30.645,12.683
				c1.604,0,3.099-0.301,4.586-0.926c1.47-0.627,2.72-1.466,3.822-2.568c1.114-1.118,1.957-2.359,2.565-3.771
				c0.627-1.423,0.932-2.94,0.932-4.638c0-1.61-0.303-3.109-0.926-4.577c-0.627-1.479-1.468-2.732-2.575-3.84
				c-1.093-1.091-2.34-1.928-3.827-2.569c-1.472-0.618-2.969-0.922-4.577-0.922c-5.312,0-9.999-1.905-13.968-5.713
				c-3.766-3.922-5.673-8.607-5.673-13.925c0-5.398,1.916-10.05,5.691-13.825c3.854-3.854,8.547-5.807,13.949-5.807
				c5.398,0,10.093,1.952,13.949,5.807c3.854,3.854,5.807,8.505,5.807,13.825v31.546c0,3.256,1.177,6.087,3.501,8.411
				c2.317,2.317,5.104,3.492,8.283,3.492c1.608,0,3.104-0.301,4.583-0.926c1.477-0.627,2.73-1.466,3.834-2.573
				c1.097-1.107,1.936-2.34,2.568-3.783c0.617-1.425,0.918-2.935,0.918-4.621v-31.546
				C816.397,454.106,812.205,444.077,803.593,435.538z"/>
			<path d="M719.213,410.535c-1.105-1.107-2.356-1.951-3.837-2.584c-3.029-1.27-6.413-1.212-9.203,0.002
				c-1.425,0.617-2.637,1.454-3.709,2.562c-1.056,1.093-1.905,2.388-2.518,3.835c-0.625,1.456-0.93,2.955-0.93,4.584v47.254
				c0,5.573-1.961,10.272-5.834,13.972c-3.928,3.761-8.614,5.666-13.929,5.666c-5.312,0-9.998-1.905-13.965-5.711
				c-3.76-3.929-5.667-8.613-5.667-13.927c0-5.398,1.914-10.05,5.689-13.825c3.854-3.854,8.545-5.807,13.942-5.807
				c1.615,0,3.118-0.308,4.569-0.928c1.465-0.61,2.722-1.452,3.844-2.575c1.105-1.104,1.946-2.339,2.571-3.776
				c0.621-1.425,0.922-2.938,0.922-4.625c0-1.626-0.303-3.126-0.928-4.588c-0.633-1.482-1.473-2.733-2.565-3.826
				s-2.342-1.933-3.831-2.569c-1.475-0.625-2.974-0.928-4.582-0.928c-11.998,0-22.021,4.186-30.643,12.8
				c-8.532,8.537-12.681,18.563-12.681,30.647c0,12.172,4.148,22.236,12.681,30.767c8.535,8.534,18.558,12.683,30.643,12.683
				c12.09,0,22.115-4.148,30.653-12.683c8.609-8.608,12.797-18.671,12.797-30.767v-47.254c0-1.606-0.304-3.102-0.924-4.573
				C721.151,412.884,720.313,411.63,719.213,410.535z"/>
			<path d="M585.561,422.74c-1.685,0-3.2,0.303-4.62,0.926c-1.441,0.622-2.658,1.464-3.71,2.557
				c-1.072,1.105-1.901,2.365-2.521,3.841c-0.629,1.467-0.935,2.968-0.935,4.588c0,3.263,1.18,6.087,3.499,8.401
				c2.322,2.325,5.112,3.503,8.287,3.503c5.4,0,10.092,1.952,13.945,5.809c3.858,3.85,5.813,8.501,5.813,13.823
				c0,5.575-1.959,10.274-5.825,13.972c-3.936,3.759-8.625,5.666-13.933,5.666c-5.312,0-10-1.907-13.972-5.711
				c-3.759-3.929-5.668-8.611-5.668-13.927v-47.254c0-1.612-0.302-3.107-0.922-4.573c-0.627-1.475-1.466-2.729-2.567-3.827
				c-1.107-1.107-2.358-1.951-3.839-2.582c-3.027-1.27-6.421-1.208-9.196,0c-1.428,0.619-2.642,1.456-3.714,2.563
				c-1.056,1.093-1.905,2.388-2.518,3.839c-0.623,1.456-0.928,2.953-0.928,4.58v47.254c0,12.17,4.146,22.234,12.675,30.767
				c8.534,8.534,18.56,12.683,30.648,12.683c12.088,0,22.11-4.148,30.646-12.683c8.61-8.608,12.798-18.671,12.798-30.767
				c0-12.083-4.191-22.114-12.803-30.649C607.665,426.926,597.642,422.74,585.561,422.74z"/>
		</g>
		<g>
			<path d="M429.497,507.315c-2.573,0-4.749-0.922-6.642-2.813c-1.896-1.901-2.818-4.116-2.818-6.77v-31.546
				c0-5.959-2.182-11.163-6.487-15.469c-4.31-4.304-9.555-6.487-15.59-6.487c-6.043,0-11.287,2.184-15.593,6.487
				c-4.227,4.229-6.371,9.432-6.371,15.469c0,5.935,2.124,11.159,6.32,15.533l0.109,0.117c4.377,4.188,9.601,6.312,15.535,6.312
				c1.293,0,2.489,0.239,3.674,0.738c1.19,0.514,2.207,1.193,3.089,2.074c0.889,0.889,1.569,1.905,2.077,3.102
				c0.497,1.171,0.742,2.373,0.742,3.67c0,1.361-0.237,2.573-0.734,3.697c-0.501,1.167-1.186,2.169-2.084,3.072
				c-0.889,0.889-1.899,1.564-3.089,2.072c-1.177,0.495-2.381,0.74-3.674,0.74c-11.442,0-20.927-3.931-29.003-12.005
				c-8.075-8.074-12.001-17.601-12.001-29.123c0-11.439,3.926-20.925,12.001-29.004c8.153-8.152,17.646-12.122,29.003-12.122
				c11.427,0,20.915,3.965,28.988,12.112c8.172,8.102,12.129,17.578,12.129,29.014v31.546c0,1.361-0.237,2.573-0.726,3.697
				c-0.51,1.167-1.19,2.169-2.087,3.072c-0.887,0.889-1.897,1.564-3.093,2.072C431.998,507.07,430.796,507.315,429.497,507.315z"/>
			<path d="M523.194,507.315c-2.581,0-4.757-0.922-6.647-2.813c-1.891-1.901-2.816-4.116-2.816-6.77v-31.546
				c0-5.959-2.182-11.163-6.487-15.469c-4.305-4.304-9.549-6.487-15.593-6.487c-6.035,0-11.28,2.184-15.592,6.487
				c-4.221,4.229-6.37,9.432-6.37,15.469v31.546c0,1.375-0.236,2.619-0.742,3.792c-0.507,1.186-1.163,2.184-2.012,3.035
				c-0.85,0.85-1.842,1.507-3.031,2.015c-1.178,0.495-2.413,0.74-3.796,0.74c-2.576,0-4.749-0.922-6.642-2.823
				c-1.899-1.891-2.817-4.105-2.817-6.759v-31.546c0-11.439,3.924-20.925,12.001-29.004c8.157-8.152,17.645-12.122,29.001-12.122
				c11.434,0,20.913,3.965,28.989,12.112c8.174,8.102,12.135,17.578,12.135,29.014v31.546c0,1.361-0.235,2.573-0.731,3.697
				c-0.501,1.167-1.19,2.169-2.085,3.072c-0.889,0.889-1.897,1.564-3.089,2.072C525.691,507.07,524.487,507.315,523.194,507.315z
				 M491.65,507.315c-2.579,0-4.754-0.922-6.647-2.823c-1.891-1.891-2.813-4.105-2.813-6.759v-31.546
				c0-1.293,0.239-2.499,0.74-3.668c0.516-1.217,1.19-2.237,2.052-3.141c0.852-0.874,1.816-1.542,2.967-2.046
				c1.128-0.49,2.337-0.726,3.701-0.726c1.293,0,2.495,0.245,3.675,0.744c1.192,0.508,2.208,1.184,3.087,2.072
				c0.891,0.889,1.573,1.897,2.08,3.096c0.495,1.169,0.74,2.375,0.74,3.668v31.546c0,1.361-0.239,2.573-0.728,3.697
				c-0.509,1.167-1.189,2.169-2.093,3.072c-0.887,0.889-1.895,1.564-3.087,2.072C494.146,507.07,492.943,507.315,491.65,507.315z"/>
			<path d="M585.349,507.315c-11.44,0-20.934-3.931-29.008-12.005c-8.068-8.074-11.992-17.601-11.992-29.123v-47.254
				c0-1.293,0.237-2.495,0.738-3.666c0.509-1.202,1.202-2.258,2.054-3.139c0.848-0.876,1.814-1.547,2.967-2.045
				c1.124-0.491,2.336-0.73,3.699-0.73c1.293,0,2.497,0.243,3.675,0.738c1.189,0.51,2.206,1.193,3.095,2.083
				c0.881,0.88,1.563,1.896,2.07,3.093c0.497,1.171,0.74,2.373,0.74,3.666v47.254c0,5.935,2.126,11.159,6.313,15.533l0.109,0.117
				c4.382,4.188,9.608,6.312,15.539,6.312c5.928,0,11.153-2.124,15.534-6.312c4.345-4.15,6.547-9.417,6.547-15.65
				c0-5.959-2.182-11.163-6.493-15.469c-4.305-4.304-9.549-6.487-15.588-6.487c-2.577,0-4.753-0.93-6.646-2.82
				c-1.897-1.891-2.819-4.105-2.819-6.76c0-1.301,0.246-2.503,0.747-3.674c0.516-1.221,1.184-2.241,2.051-3.135
				c0.853-0.884,1.815-1.546,2.968-2.045c1.122-0.491,2.336-0.736,3.699-0.736c11.43,0,20.914,3.965,28.993,12.112
				c8.172,8.102,12.126,17.578,12.126,29.014c0,11.441-3.961,20.973-12.116,29.123C606.277,503.385,596.792,507.315,585.349,507.315
				z"/>
			<path d="M679.042,507.315c-11.439,0-20.925-3.931-28.999-12.005c-8.079-8.074-12.003-17.601-12.003-29.123
				c0-11.439,3.924-20.925,12.003-29.004c8.156-8.152,17.642-12.122,28.999-12.122c1.295,0,2.497,0.245,3.675,0.744
				c1.197,0.514,2.206,1.184,3.097,2.072c0.889,0.892,1.563,1.905,2.072,3.1c0.501,1.175,0.74,2.377,0.74,3.674
				c0,1.361-0.239,2.571-0.728,3.697c-0.51,1.165-1.192,2.17-2.085,3.063c-0.891,0.889-1.899,1.573-3.097,2.072
				c-1.178,0.505-2.376,0.748-3.675,0.748c-6.035,0-11.279,2.184-15.584,6.487c-4.228,4.229-6.372,9.432-6.372,15.469
				c0,5.935,2.126,11.159,6.312,15.533l0.111,0.117c4.376,4.188,9.607,6.312,15.533,6.312c5.935,0,11.159-2.124,15.535-6.312
				c4.344-4.15,6.551-9.417,6.551-15.65v-47.254c0-1.293,0.237-2.495,0.742-3.666c0.507-1.202,1.202-2.258,2.052-3.139
				c0.848-0.876,1.814-1.547,2.965-2.045c1.126-0.491,2.336-0.73,3.701-0.73c1.293,0,2.497,0.243,3.675,0.738
				c1.189,0.51,2.206,1.193,3.093,2.083c0.883,0.88,1.564,1.896,2.074,3.093c0.495,1.171,0.738,2.373,0.738,3.666v47.254
				c0,11.441-3.961,20.973-12.116,29.123C699.975,503.385,690.486,507.315,679.042,507.315z"/>
			<path d="M804.281,507.315c-2.575,0-4.751-0.922-6.642-2.813c-1.899-1.901-2.818-4.116-2.818-6.77v-31.546
				c0-5.959-2.184-11.163-6.487-15.469c-4.31-4.304-9.557-6.487-15.593-6.487c-6.041,0-11.285,2.184-15.59,6.487
				c-4.229,4.229-6.372,9.432-6.372,15.469c0,5.935,2.124,11.159,6.32,15.533l0.107,0.117c4.377,4.188,9.603,6.312,15.534,6.312
				c1.293,0,2.491,0.239,3.675,0.738c1.191,0.514,2.208,1.193,3.089,2.074c0.891,0.889,1.571,1.905,2.078,3.102
				c0.497,1.171,0.742,2.373,0.742,3.67c0,1.361-0.239,2.573-0.735,3.697c-0.501,1.167-1.184,2.169-2.085,3.072
				c-0.889,0.889-1.897,1.564-3.089,2.072c-1.178,0.495-2.382,0.74-3.675,0.74c-11.439,0-20.925-3.931-29.001-12.005
				c-8.075-8.074-12.003-17.601-12.003-29.123c0-11.439,3.928-20.925,12.003-29.004c8.153-8.152,17.646-12.122,29.001-12.122
				c11.43,0,20.915,3.965,28.989,12.112c8.174,8.102,12.131,17.578,12.131,29.014v31.546c0,1.361-0.237,2.573-0.726,3.697
				c-0.51,1.167-1.19,2.169-2.087,3.072c-0.887,0.889-1.899,1.564-3.093,2.072C806.782,507.07,805.58,507.315,804.281,507.315z"/>
			<path fill="#FFFFFF" d="M523.194,499.83c-0.501,0-0.798-0.06-1.358-0.618c-0.495-0.503-0.623-0.807-0.623-1.479v-31.546
				c0-7.901-3.006-15.077-8.681-20.758c-5.683-5.679-12.896-8.683-20.882-8.683c-7.978,0-15.2,3.004-20.881,8.683
				c-5.599,5.599-8.56,12.78-8.56,20.758v31.546c0,0.464-0.076,0.699-0.146,0.872c-0.16,0.375-0.305,0.549-0.42,0.666
				c-0.116,0.113-0.281,0.25-0.662,0.408c-0.171,0.076-0.41,0.15-0.874,0.15c-0.495,0-0.792-0.06-1.351-0.618
				c-0.497-0.503-0.627-0.807-0.627-1.479v-31.546c0-9.485,3.115-17.02,9.809-23.715c6.775-6.77,14.312-9.926,23.712-9.926
				c9.467,0,16.989,3.145,23.68,9.893c6.817,6.751,9.964,14.281,9.964,23.748v31.546c0,0.468-0.078,0.649-0.109,0.714
				c-0.13,0.307-0.284,0.525-0.516,0.765c-0.206,0.204-0.419,0.34-0.728,0.477C523.695,499.789,523.485,499.83,523.194,499.83z
				 M491.65,499.83c-0.496,0-0.791-0.06-1.35-0.618c-0.502-0.503-0.632-0.807-0.632-1.479v-31.546c0-0.289,0.046-0.493,0.146-0.738
				c0.2-0.472,0.386-0.703,0.549-0.872c0.146-0.145,0.289-0.262,0.573-0.386c0.063-0.026,0.245-0.104,0.713-0.104
				c0.289,0,0.502,0.042,0.755,0.149c0.302,0.127,0.514,0.264,0.718,0.472c0.215,0.208,0.351,0.423,0.484,0.74
				c0.104,0.235,0.146,0.449,0.146,0.738v31.546c0,0.468-0.082,0.649-0.109,0.714c-0.134,0.307-0.282,0.525-0.521,0.765
				c-0.204,0.204-0.416,0.34-0.718,0.477C492.152,499.789,491.939,499.83,491.65,499.83z"/>
			<path fill="#FFFFFF" d="M585.349,499.83c-9.483,0-17.02-3.117-23.717-9.809c-6.687-6.69-9.809-14.267-9.809-23.834v-47.254
				c0-0.287,0.045-0.499,0.15-0.744c0.146-0.349,0.326-0.64,0.546-0.862c0.141-0.141,0.289-0.262,0.578-0.394
				c0.063-0.019,0.239-0.095,0.709-0.095c0.289,0,0.501,0.039,0.759,0.148c0.295,0.128,0.51,0.264,0.722,0.468
				c0.204,0.212,0.34,0.427,0.477,0.738c0.101,0.241,0.14,0.453,0.14,0.74v47.254c0,7.813,2.901,14.976,8.393,20.708l0.347,0.341
				c5.734,5.488,12.896,8.392,20.706,8.392c7.809,0,14.97-2.896,20.702-8.386c5.8-5.534,8.862-12.815,8.862-21.055
				c0-7.901-3.007-15.077-8.681-20.758c-5.681-5.679-12.904-8.683-20.884-8.683c-0.493,0-0.796-0.063-1.354-0.625
				c-0.491-0.486-0.625-0.805-0.625-1.471c0-0.29,0.039-0.503,0.14-0.748c0.2-0.473,0.395-0.695,0.547-0.862
				c0.148-0.15,0.291-0.264,0.581-0.394c0.064-0.022,0.244-0.101,0.712-0.101c9.46,0,16.984,3.145,23.675,9.893
				c6.817,6.751,9.97,14.281,9.97,23.748c0,9.487-3.152,17.057-9.93,23.834C602.372,496.713,594.836,499.83,585.349,499.83z"/>
			<path fill="#FFFFFF" d="M679.042,499.83c-9.483,0-17.02-3.117-23.711-9.809c-6.692-6.69-9.809-14.267-9.809-23.834
				c0-9.485,3.116-17.02,9.809-23.715c6.774-6.77,14.311-9.926,23.711-9.926c0.291,0,0.503,0.045,0.761,0.146
				c0.297,0.13,0.508,0.271,0.714,0.47c0.214,0.215,0.354,0.431,0.49,0.74c0.095,0.245,0.141,0.458,0.141,0.748
				c0,0.469-0.076,0.64-0.109,0.712c-0.13,0.305-0.282,0.527-0.516,0.759c-0.212,0.212-0.417,0.349-0.734,0.477
				c-0.243,0.109-0.449,0.148-0.746,0.148c-7.979,0-15.198,3.004-20.88,8.683c-5.598,5.599-8.559,12.78-8.559,20.758
				c0,7.813,2.901,14.976,8.39,20.708l0.343,0.341c5.738,5.488,12.896,8.392,20.706,8.392c7.814,0,14.968-2.896,20.708-8.386
				c5.794-5.534,8.856-12.815,8.856-21.055v-47.254c0-0.287,0.037-0.495,0.146-0.74c0.148-0.353,0.336-0.644,0.546-0.866
				c0.137-0.141,0.291-0.262,0.582-0.394c0.056-0.019,0.237-0.095,0.707-0.095c0.289,0,0.501,0.039,0.759,0.148
				c0.295,0.128,0.51,0.264,0.714,0.468c0.212,0.212,0.356,0.427,0.482,0.738c0.104,0.241,0.142,0.453,0.142,0.74v47.254
				c0,9.487-3.152,17.057-9.922,23.834C696.065,496.713,688.527,499.83,679.042,499.83z"/>
			<path fill="#FFFFFF" d="M804.281,499.83c-0.497,0-0.792-0.06-1.353-0.618c-0.497-0.503-0.623-0.807-0.623-1.479v-31.546
				c0-7.901-3.006-15.077-8.681-20.758c-5.685-5.679-12.903-8.683-20.884-8.683c-7.979,0-15.204,3.004-20.879,8.683
				c-5.599,5.599-8.56,12.78-8.56,20.758c0,7.813,2.901,14.976,8.391,20.708l0.34,0.341c5.734,5.488,12.897,8.392,20.708,8.392
				c0.291,0,0.497,0.046,0.753,0.155c0.303,0.127,0.516,0.264,0.722,0.468c0.206,0.212,0.349,0.427,0.484,0.738
				c0.102,0.241,0.141,0.453,0.141,0.744c0,0.468-0.078,0.649-0.104,0.714c-0.136,0.307-0.29,0.525-0.521,0.765
				c-0.206,0.204-0.419,0.34-0.728,0.477c-0.243,0.101-0.456,0.142-0.747,0.142c-9.484,0-17.019-3.117-23.71-9.809
				c-6.693-6.69-9.809-14.267-9.809-23.834c0-9.485,3.115-17.02,9.809-23.715c6.775-6.77,14.31-9.926,23.71-9.926
				c9.469,0,16.989,3.145,23.676,9.893c6.813,6.751,9.966,14.281,9.966,23.748v31.546c0,0.468-0.076,0.649-0.107,0.714
				c-0.128,0.307-0.284,0.525-0.516,0.765c-0.21,0.204-0.416,0.34-0.726,0.477C804.782,499.789,804.576,499.83,804.281,499.83z"/>
			<rect x="487.834" y="472.742" fill="#FFFFFF" width="8.438" height="14.25"/>
			<rect x="800.316" y="472.742" fill="#FFFFFF" width="8.432" height="14.25"/>
			<rect x="549.326" y="432.579" fill="#FFFFFF" width="8.438" height="14.244"/>
			<rect x="706.521" y="432.579" fill="#FFFFFF" width="8.428" height="14.244"/>
			<rect x="425.532" y="472.742" fill="#FFFFFF" width="8.431" height="14.25"/>
		</g>
	</g>
	<path d="M426.139,445.053c-5.617-0.514-30.375-9.717-30.218-7.827c0.08,0.837,0.082,1.655,0.043,2.47
		c-10.747,1.516-19.939,6.563-28.039,14.066c-2.676,2.48-2.792,5.53-1.534,7.997c-11.219,2.338-22.704,1.75-34.701-1.753
		c-19.492-5.697-33.744-17.195-43.58-35.161l-79.913-145.923l29.688-16.252l80.617,147.198c5.062,9.25,9.357,15.061,20.292,19.654
		c21.028,8.836,36.171-6.773,60.226-6.773c10.982,0,13.021,4.174,20.78,12.003c7.829,7.761,11.639,16.879,11.639,27.863"/>
	<path fill="#FFFFFF" d="M376.872,439.252c0.668-1.579,1.85-2.913,3.567-3.625c-0.142-0.062-0.283-0.13-0.439-0.18
		c-0.489-0.144,7.914-0.774,7.336-0.719c-0.497,0.051-1.94-2.673-2.413-2.46c-18.141,8.134-33.577,11.729-47.207,8.066l-0.811-0.244
		c-13.456-4.253-24.096-12.94-30.764-25.118l-70.983-129.63l-5.518,3.015l70.987,129.632c8.165,14.914,18.644,24.533,34.793,29.251
		c11.685,3.414,22.463,3.514,33.133,0.245c1.823-0.286,2.287-0.567,3.869-1.738c1.045-1.767,1.761-6.211,4.32-6.402
		C376.784,439.31,376.833,439.285,376.872,439.252z"/>
	<path fill="none" d="M56.491,185.395"/>
	<path stroke="#000000" stroke-width="6.3343" stroke-miterlimit="10" d="M189.652,272.241c-7.771-0.478-15.683-0.754-23.185-3.039
		c-0.19-0.062-0.371-0.14-0.546-0.231L68.143,460.132h47.51l94.749-184.885C203.476,274.315,196.673,272.67,189.652,272.241z"/>
	<path d="M279.651,271.342c-0.299,37.73-31.132,68.082-68.874,67.79c-37.738-0.302-68.088-31.145-67.792-68.875
		c0.297-37.746,31.134-68.111,68.872-67.793C249.606,202.757,279.956,233.6,279.651,271.342z"/>
	<path stroke="#000000" stroke-width="0.6756" stroke-miterlimit="10" d="M279.651,271.342c-0.299,37.73-31.132,68.082-68.874,67.79
		c-37.738-0.302-68.088-31.145-67.792-68.875c0.297-37.746,31.134-68.111,68.872-67.793
		C249.606,202.757,279.956,233.6,279.651,271.342z"/>
	<path fill="#FFFFFF" stroke="#FFFFFF" stroke-width="2.4776" stroke-miterlimit="10" d="M180.483,282.769L96.625,445.075
		l3.786,1.761l83.679-161.638C182.539,285.264,180.951,284.233,180.483,282.769z"/>
	<path d="M109.411,444.601"/>
	<path d="M109.411,444.601"/>
	<path d="M201.051,244.351"/>
	<path d="M221.576,297.252"/>
	<path stroke="#000000" stroke-width="3.8797" stroke-miterlimit="10" d="M222.439,293.954c-0.967,0.491-1.94,0.911-2.948,1.291
		l9.271,2.441l-2.53,9.613c0.794-0.342,1.573-0.701,2.353-1.097l2.623-9.935L222.439,293.954z"/>
	<polygon stroke="#000000" stroke-width="0.9699" stroke-miterlimit="10" points="234.506,292.061 235.933,292.963 235.042,294.391 
		236.22,295.145 237.123,293.714 238.55,294.609 239.302,293.417 237.863,292.522 238.764,291.087 237.579,290.353 236.677,291.772 
		235.261,290.881 	"/>
	<path d="M221.576,297.252"/>
	<path d="M193.011,252.293c10.223-10.104,26.69-9.997,36.812,0.214c10.096,10.219,10.009,26.69-0.212,36.806
		c-10.224,10.104-26.696,10.009-36.796-0.21C182.706,278.885,182.803,262.41,193.011,252.293z"/>
	<g>
		<g>
			<path fill="#FFFFFF" d="M211.307,322.137c-1.903,0-3.831-0.109-5.726-0.323l0.408-3.621c3.542,0.397,7.166,0.397,10.67-0.004
				l0.413,3.62C215.173,322.025,213.233,322.137,211.307,322.137z M194.382,319.254c-3.619-1.264-7.104-2.938-10.353-4.976
				l1.934-3.089c3.021,1.894,6.258,3.448,9.623,4.625L194.382,319.254z M228.425,319.187l-1.375-3.38l0.191-0.068
				c3.353-1.182,6.586-2.746,9.578-4.637l1.946,3.08C235.543,316.219,232.065,317.903,228.425,319.187z M247.728,306.991
				l-2.586-2.568c2.501-2.522,4.73-5.339,6.621-8.373l3.093,1.93C252.82,301.243,250.422,304.276,247.728,306.991z M162.882,287.803
				c-1.276-3.631-2.145-7.396-2.578-11.197l3.621-0.412c0.404,3.528,1.21,7.027,2.396,10.4L162.882,287.803z M259.807,287.615
				l-3.444-1.196c1.171-3.374,1.961-6.875,2.351-10.409l3.625,0.4C261.918,280.214,261.066,283.984,259.807,287.615z
				 M163.913,265.523l-3.621-0.408c0.427-3.806,1.287-7.574,2.551-11.199l3.443,1.2
				C165.109,258.485,164.311,261.987,163.913,265.523z M258.687,265.339c-0.409-3.524-1.221-7.023-2.411-10.398l3.435-1.212
				c1.283,3.631,2.157,7.396,2.596,11.19L258.687,265.339z M170.903,245.495l-3.089-1.934c2.04-3.258,4.444-6.285,7.145-8.999
				l2.582,2.574C175.033,239.656,172.8,242.468,170.903,245.495z M251.631,245.33c-1.899-3.012-4.143-5.814-6.668-8.326l2.569-2.585
				c2.722,2.705,5.138,5.724,7.184,8.969L251.631,245.33z M185.877,230.472l-1.942-3.084c3.207-2.019,6.662-3.689,10.271-4.963
				l0.678,1.693l0.547,1.738C192.065,227.045,188.854,228.598,185.877,230.472z M236.597,230.373
				c-3.023-1.887-6.262-3.437-9.629-4.61l1.2-3.443c3.621,1.262,7.106,2.932,10.359,4.961L236.597,230.373z M205.89,223.428
				l-0.42-3.621c3.802-0.441,7.699-0.449,11.493-0.024l-0.404,3.621C213.041,223.012,209.418,223.02,205.89,223.428z"/>
		</g>
	</g>
	<path fill="#FFFFFF" d="M429.67,496.971c-0.496,0-0.791-0.06-1.353-0.619c-0.494-0.503-0.622-0.806-0.622-1.479v-31.546
		c0-7.901-3.007-15.077-8.681-20.758c-5.683-5.679-12.904-8.683-20.881-8.683c-7.98,0-15.207,3.004-20.882,8.683
		c-5.598,5.599-8.557,12.78-8.557,20.758c0,7.813,2.901,14.977,8.39,20.709l0.34,0.34c5.732,5.489,12.896,8.393,20.708,8.393
		c0.289,0,0.495,0.045,0.752,0.154c0.301,0.128,0.514,0.264,0.722,0.468c0.206,0.213,0.346,0.427,0.482,0.738
		c0.101,0.241,0.14,0.454,0.14,0.744c0,0.469-0.076,0.65-0.101,0.714c-0.136,0.308-0.291,0.525-0.522,0.765
		c-0.208,0.204-0.42,0.341-0.73,0.477c-0.241,0.102-0.456,0.143-0.744,0.143c-9.487,0-17.021-3.118-23.713-9.809
		c-6.693-6.691-9.807-14.268-9.807-23.835c0-9.484,3.114-17.02,9.807-23.714c6.776-6.77,14.31-9.927,23.713-9.927
		c9.466,0,16.988,3.145,23.673,9.894c6.814,6.751,9.967,14.281,9.967,23.747v31.546c0,0.469-0.078,0.65-0.109,0.714
		c-0.128,0.308-0.284,0.525-0.516,0.765c-0.21,0.204-0.416,0.341-0.726,0.477C430.172,496.93,429.965,496.971,429.67,496.971z"/>
	<g>
		<g>
			<path fill="#FFFFFF" d="M251.367,270.795c0-22.139-17.914-40.054-40.053-40.054c-22.14,0-40.054,17.915-40.054,40.054
				c0,22.142,17.914,40.056,40.054,40.056C233.453,310.852,251.367,292.937,251.367,270.795z"/>
		</g>
		<g>
			<g>
				<path fill="#FFFFFF" d="M211.313,304.418c-18.538,0-33.62-15.083-33.62-33.623c0-18.538,15.082-33.62,33.62-33.62
					s33.62,15.082,33.62,33.62C244.933,289.335,229.852,304.418,211.313,304.418z"/>
			</g>
			<g>
				<path d="M211.313,240.342c16.832,0,30.453,13.622,30.453,30.453c0,16.834-13.621,30.456-30.453,30.456
					c-16.832,0-30.453-13.622-30.453-30.456C180.86,253.964,194.481,240.342,211.313,240.342 M211.313,234.008
					c-20.285,0-36.788,16.503-36.788,36.788c0,20.286,16.503,36.79,36.788,36.79c20.284,0,36.787-16.504,36.787-36.79
					C248.101,250.511,231.598,234.008,211.313,234.008L211.313,234.008z"/>
			</g>
		</g>
		<g>
			<rect x="210.258" y="270.795" width="2.111" height="30.456"/>
		</g>
		<g>
			<rect x="209.273" y="277.355" transform="matrix(0.866 0.5 -0.5 0.866 169.2706 -74.95)" width="30.461" height="2.111"/>
		</g>
		<g>
			
				<rect x="223.448" y="247.952" transform="matrix(0.4999 0.8661 -0.8661 0.4999 340.223 -62.8176)" width="2.112" height="30.46"/>
		</g>
		<g>
			<rect x="210.258" y="240.342" width="2.111" height="30.453"/>
		</g>
		<g>
			
				<rect x="182.893" y="262.126" transform="matrix(0.8661 0.4999 -0.4999 0.8661 158.1021 -63.7979)" width="30.46" height="2.112"/>
		</g>
		<g>
			<rect x="197.068" y="263.18" transform="matrix(0.5001 0.866 -0.866 0.5001 340.1469 -32.3859)" width="2.111" height="30.461"/>
		</g>
		<g>
			<path d="M241.635,256.624h-60.644l30.322-17.5L241.635,256.624z M188.874,254.512h44.879l-22.439-12.951L188.874,254.512z"/>
		</g>
		<g>
			<path d="M210.927,302.692l-9.016-15.612h-18.035v-35.452l19.253,33.341h38.505L210.927,302.692z M204.35,287.081l7.35,12.728
				l22.053-12.728H204.35z M200.692,284.969l-14.704-25.462v25.462H200.692z"/>
		</g>
		<g>
			<polygon points="211.7,302.692 184.405,286.939 185.46,285.11 210.927,299.809 238.75,251.628 238.75,286.025 236.638,286.025 
				236.638,259.507 			"/>
		</g>
		<g>
			<path d="M211.313,302.472l-27.823-16.063l27.823-48.18l27.825,48.18L211.313,302.472z M186.375,285.637l24.938,14.396
				l24.94-14.396l-24.94-43.186L186.375,285.637z"/>
		</g>
		<g>
			<path fill="#FFFFFF" d="M214.359,240.342c0,1.681-1.361,3.043-3.045,3.043c-1.685,0-3.046-1.363-3.046-3.043
				c0-1.685,1.361-3.047,3.046-3.047C212.998,237.295,214.359,238.658,214.359,240.342z"/>
			<path d="M211.313,244.441c-2.262,0-4.102-1.839-4.102-4.099c0-2.263,1.84-4.103,4.102-4.103c2.261,0,4.101,1.84,4.101,4.103
				C215.415,242.603,213.575,244.441,211.313,244.441z M211.313,238.351c-1.097,0-1.99,0.894-1.99,1.992
				c0,1.096,0.893,1.988,1.99,1.988s1.99-0.892,1.99-1.988C213.303,239.244,212.411,238.351,211.313,238.351z"/>
		</g>
		<g>
			<path fill="#FFFFFF" d="M214.359,301.251c0,1.683-1.361,3.048-3.045,3.048c-1.685,0-3.046-1.365-3.046-3.048
				c0-1.681,1.361-3.042,3.046-3.042C212.998,298.209,214.359,299.57,214.359,301.251z"/>
			<path d="M211.313,305.354c-2.262,0-4.102-1.841-4.102-4.104c0-2.259,1.84-4.097,4.102-4.097c2.261,0,4.101,1.838,4.101,4.097
				C215.415,303.514,213.575,305.354,211.313,305.354z M211.313,299.266c-1.097,0-1.99,0.891-1.99,1.985
				c0,1.099,0.893,1.992,1.99,1.992s1.99-0.894,1.99-1.992C213.303,300.156,212.411,299.266,211.313,299.266z"/>
		</g>
		<g>
			<circle fill="#FFFFFF" cx="184.933" cy="286.025" r="3.045"/>
			<path d="M184.933,290.124c-2.261,0-4.101-1.839-4.101-4.099c0-2.261,1.84-4.101,4.101-4.101s4.101,1.84,4.101,4.101
				C189.034,288.285,187.194,290.124,184.933,290.124z M184.933,284.035c-1.097,0-1.99,0.893-1.99,1.99
				c0,1.096,0.893,1.988,1.99,1.988s1.99-0.892,1.99-1.988C186.922,284.928,186.03,284.035,184.933,284.035z"/>
		</g>
		<g>
			<path fill="#FFFFFF" d="M240.74,286.025c0,1.681-1.361,3.043-3.046,3.043c-1.683,0-3.043-1.363-3.043-3.043
				c0-1.682,1.361-3.045,3.043-3.045C239.378,282.979,240.74,284.343,240.74,286.025z"/>
			<path d="M237.694,290.124c-2.26,0-4.099-1.839-4.099-4.099c0-2.261,1.839-4.101,4.099-4.101c2.262,0,4.102,1.84,4.102,4.101
				C241.795,288.285,239.956,290.124,237.694,290.124z M237.694,284.035c-1.096,0-1.988,0.893-1.988,1.99
				c0,1.096,0.892,1.988,1.988,1.988c1.097,0,1.99-0.892,1.99-1.988C239.684,284.928,238.791,284.035,237.694,284.035z"/>
		</g>
		<g>
			<circle fill="#FFFFFF" cx="184.933" cy="255.568" r="3.045"/>
			<path d="M184.933,259.669c-2.261,0-4.101-1.84-4.101-4.101c0-2.259,1.84-4.097,4.101-4.097s4.101,1.838,4.101,4.097
				C189.034,257.829,187.194,259.669,184.933,259.669z M184.933,253.582c-1.097,0-1.99,0.891-1.99,1.986
				c0,1.097,0.893,1.99,1.99,1.99s1.99-0.893,1.99-1.99C186.922,254.473,186.03,253.582,184.933,253.582z"/>
		</g>
		<g>
			<path fill="#FFFFFF" d="M240.74,255.568c0,1.683-1.361,3.045-3.046,3.045c-1.683,0-3.043-1.363-3.043-3.045
				c0-1.681,1.361-3.042,3.043-3.042C239.378,252.526,240.74,253.887,240.74,255.568z"/>
			<path d="M237.694,259.669c-2.26,0-4.099-1.84-4.099-4.101c0-2.259,1.839-4.097,4.099-4.097c2.262,0,4.102,1.838,4.102,4.097
				C241.795,257.829,239.956,259.669,237.694,259.669z M237.694,253.582c-1.096,0-1.988,0.891-1.988,1.986
				c0,1.097,0.892,1.99,1.988,1.99c1.097,0,1.99-0.893,1.99-1.99C239.684,254.473,238.791,253.582,237.694,253.582z"/>
		</g>
	</g>
	<polygon fill="#FFFFFF" points="52.146,149.043 52.746,146.801 50.072,146.09 50.835,143.253 37.568,139.712 36.812,142.55 
		34.143,141.838 33.543,144.088 36.213,144.797 35.382,147.898 32.714,147.187 32.116,149.428 34.787,150.144 34.032,152.981 
		47.292,156.515 48.047,153.676 50.719,154.394 51.321,152.142 48.647,151.429 49.474,148.333 	"/>
	<g>
		<path fill="#FFFFFF" stroke="#FFFFFF" stroke-width="1.6053" stroke-miterlimit="10" d="M119.393,443.149
			c2.92-8.858-1.909-18.405-10.766-21.323c-8.864-2.917-18.411,1.901-21.327,10.77c-2.918,8.86,1.899,18.407,10.766,21.323
			C106.929,456.839,116.476,452.018,119.393,443.149z M92.188,434.198c2.029-6.159,8.667-9.504,14.834-7.483
			c6.157,2.029,9.507,8.667,7.48,14.832c-2.027,6.159-8.664,9.51-14.825,7.483C93.516,447.001,90.165,440.361,92.188,434.198z"/>
		<path d="M93.784,429.354"/>
		<path stroke="#000000" stroke-width="1.751" stroke-miterlimit="10" d="M94.113,430.864c0.287-0.398,0.598-0.77,0.917-1.13
			l-4.225,0.928l-0.957-4.382c-0.247,0.301-0.486,0.61-0.722,0.926l0.988,4.526L94.113,430.864z"/>
		<path d="M112.906,446.389"/>
		<polygon stroke="#000000" stroke-width="0.4377" stroke-miterlimit="10" points="89.655,434.102 88.896,434.029 88.96,433.272 
			88.338,433.221 88.266,433.974 87.509,433.907 87.451,434.545 88.214,434.608 88.144,435.367 88.777,435.421 88.841,434.664 
			89.598,434.73 		"/>
		<path stroke="#000000" stroke-width="1.751" stroke-miterlimit="10" d="M112.576,444.883c-0.287,0.398-0.594,0.768-0.919,1.124
			l4.227-0.924l0.958,4.382c0.251-0.299,0.489-0.602,0.722-0.924l-0.99-4.528L112.576,444.883z"/>
		<polygon stroke="#000000" stroke-width="0.4377" stroke-miterlimit="10" points="117.034,441.644 117.793,441.712 
			117.731,442.469 118.358,442.528 118.426,441.77 119.183,441.836 119.238,441.2 118.476,441.139 118.548,440.376 117.917,440.324 
			117.849,441.079 117.096,441.013 		"/>
		<path d="M112.906,446.389"/>
		<path d="M92.188,434.198c2.029-6.159,8.667-9.504,14.834-7.483c6.157,2.029,9.507,8.667,7.48,14.832
			c-2.027,6.159-8.664,9.51-14.825,7.483C93.516,447.001,90.165,440.361,92.188,434.198z"/>
	</g>
</g>
</svg>
